<svg xmlns="http://www.w3.org/2000/svg" viewBox="0 0 24 24" id="Code"><path fill="#00509d" d="m20.85 5.15-5-5A.5.5 0 0 0 15.5 0H5a2 2 0 0 0-2 2v20a2 2 0 0 0 2 2h14a2 2 0 0 0 2-2V5.5a.5.5 0 0 0-.15-.35Zm-11.7 3.7a.5.5 0 0 1 .71-.71l1 1a.5.5 0 0 1 0 .71l-1 1a.5.5 0 0 1-.71-.71l.65-.65Zm-3 .29 1-1a.5.5 0 0 1 .71.71l-.65.65.65.65a.5.5 0 1 1-.71.71l-1-1a.5.5 0 0 1 0-.71ZM10.5 19h-4a.5.5 0 0 1 0-1h4a.5.5 0 0 1 0 1Zm3.35.15a.5.5 0 1 1-.71.71l-1-1a.5.5 0 0 1 0-.71l1-1a.5.5 0 0 1 .71.71l-.65.65Zm2.12-2-1 3a.5.5 0 0 1-.47.34h-.16a.5.5 0 0 1-.32-.63l1-3a.5.5 0 0 1 .95.32Zm1.88 1.7-1 1a.5.5 0 0 1-.71-.71l.65-.65-.65-.65a.5.5 0 0 1 .71-.71l1 1a.5.5 0 0 1 0 .72ZM17.5 16h-11a.5.5 0 0 1 0-1h11a.5.5 0 0 1 0 1Zm0-3h-11a.5.5 0 0 1 0-1h11a.5.5 0 0 1 0 1Zm0-3h-5a.5.5 0 0 1 0-1h5a.5.5 0 0 1 0 1ZM17 5a1 1 0 0 1-1-1V1.71L19.29 5Z" data-name="Code File 1" class="color303c42 svgShape"></path></svg>